<?xml version="1.0" standalone="no"?>
<!DOCTYPE svg >
<svg version="1.0" xmlns="http://www.w3.org/2000/svg"
 width="285.000000pt" height="180.000000pt" viewBox="0 0 285.000000 180.000000"
 preserveAspectRatio="xMidYMid meet">
<g transform="translate(0.000000,180.000000) scale(0.100000,-0.100000)"
 stroke-width="10">
<path d="M0 900 l0 -900 1425 0 1425 0 0 900 0 900 -1425 0 -1425 0 0 -900z
m820 725 l0 -65 510 0 510 0 0 -250 0 -250 50 0 50 0 0 65 0 65 315 0 315 0 0
-65 0 -65 65 0 c37 0 65 -4 65 -10 0 -6 -28 -10 -65 -10 l-65 0 0 -180 0 -180
-315 0 -315 0 0 55 0 55 -50 0 -50 0 0 -250 0 -250 -510 0 -510 0 0 -120 0
-120 -315 0 -315 0 0 60 0 60 -65 0 c-37 0 -65 4 -65 10 0 6 28 10 65 10 l65
0 0 50 0 50 -65 0 c-51 0 -65 3 -65 15 0 12 14 15 65 15 l65 0 0 60 0 60 315
0 315 0 0 -60 0 -60 495 0 495 0 2 247 3 248 63 3 62 3 0 49 0 50 -560 0 -560
0 0 -120 0 -120 -315 0 -315 0 0 55 0 55 -66 0 c-48 0 -65 3 -62 13 3 7 28 13
66 15 l62 3 0 49 0 50 -65 0 c-37 0 -65 4 -65 10 0 6 28 10 65 10 l65 0 0 60
0 60 315 0 315 0 0 -60 0 -60 560 0 560 0 0 50 0 50 -65 0 -65 0 0 250 0 250
-495 0 -495 0 0 -120 0 -120 -315 0 -315 0 0 55 0 54 -62 3 c-38 2 -63 8 -66
16 -3 9 14 12 62 12 l66 0 0 50 0 50 -65 0 c-37 0 -65 4 -65 10 0 6 28 10 65
10 l65 0 0 65 0 65 315 0 315 0 0 -65z"/>
<path d="M210 1495 l0 -165 295 0 295 0 0 165 0 165 -295 0 -295 0 10 -165z"/>
<path d="M1960 930 l0 -230 295 0 295 0 0 230 0 230 -295 0 -295 0 0 -230z"/>
<path d="M210 870 l0 -170 295 0 295 0 0 170 0 170 -295 0 -295 0 0 -170z"/>
<path d="M210 250 l0 -170 295 0 295 0 0 170 0 170 -295 0 -295 0 0 -170z"/>
</g>
</svg>
